<svg width="406" height="306" viewBox="0 0 406 306" fill="none" xmlns="http://www.w3.org/2000/svg">
<g id="Parachute_Monochromatic 1">
<path id="Background" opacity="0.27" d="M103.261 114.803C101.917 123.61 102.295 132.885 98.6829 141.026C95.8828 147.326 90.9827 152.359 86.9856 157.988C82.1657 164.804 78.7485 172.51 76.9326 180.658C75.1167 188.806 74.9383 197.234 76.4076 205.452C77.877 213.669 80.9649 221.513 85.492 228.527C90.019 235.541 95.8948 241.586 102.778 246.309C106.663 248.976 110.954 251.314 113.726 255.123C116.876 259.449 117.597 265.021 119.432 270.047C123.688 281.681 134.279 290.348 146.13 293.995C157.982 297.642 170.897 296.599 182.727 292.924C189.798 290.726 196.658 287.596 204.008 286.679C212.191 285.664 220.431 287.477 228.593 288.688C241.984 290.684 255.894 291.055 268.865 287.239C281.836 283.424 293.912 274.989 299.89 262.844C313.778 234.612 291.77 197.525 307.66 170.378C311.104 164.491 316.06 159.668 319.994 154.089C326.391 144.938 329.782 134.025 329.697 122.861C329.613 115.076 327.66 107.026 322.613 101.097C320.267 98.3459 317.334 96.1198 315.15 93.2357C311.461 88.3356 310.25 82.1054 308.752 76.1762C305.392 63.1279 299.33 49.9395 288.095 42.4982C277.594 35.561 264.371 34.686 251.805 34.546C241.06 34.434 230.217 34.707 219.758 37.1781C199.136 42.0502 181.292 55.0706 160.292 58.5637C142.452 61.4436 126.434 71.1549 115.63 85.6405C109.202 94.2138 104.957 104.223 103.261 114.803V114.803Z" fill="#233B91"/>
<path id="cloud-right" d="M268.795 165.205C268.701 166.625 268.941 168.048 269.497 169.359C270.052 170.669 270.908 171.831 271.994 172.751C274.197 174.571 276.863 175.739 279.694 176.125C284.3 176.897 289.031 176.294 293.296 174.389C294.696 173.752 296.208 172.954 297.72 173.283C298.847 173.528 299.736 174.354 300.667 175.04C305.896 178.862 313.015 178.288 319.469 177.7C323.334 177.35 327.261 177.042 330.929 175.768C334.597 174.494 338.048 172.086 339.707 168.572C341.366 165.058 340.778 160.361 337.726 157.96C336.221 156.77 334.149 156.077 333.379 154.313C332.861 153.115 333.106 151.722 332.833 150.441C332.07 146.941 327.933 145.541 324.433 144.841C322.004 144.358 319.392 143.945 317.138 144.946C313.918 146.381 312.238 150.357 308.801 151.246C305.049 152.261 301.584 149.076 297.867 147.949C295.828 147.372 293.665 147.402 291.643 148.036C289.621 148.671 287.828 149.881 286.484 151.519C285.665 152.548 284.895 153.837 283.6 154.075C281.885 154.39 280.499 152.989 278.805 153.809C277.874 154.264 276.705 156.14 275.718 156.847C272.645 159.094 269.278 161.054 268.795 165.205Z" fill="white"/>
<path id="cloud-middle" d="M157.891 114.67C157.821 115.735 158.002 116.802 158.419 117.784C158.836 118.766 159.477 119.637 160.292 120.327C161.942 121.688 163.94 122.56 166.06 122.847C169.501 123.419 173.035 122.961 176.217 121.531C177.274 121.055 178.401 120.453 179.535 120.698C180.352 120.982 181.102 121.43 181.74 122.014C185.653 124.877 190.981 124.45 195.811 124.009C198.709 123.743 201.649 123.519 204.393 122.56C207.137 121.601 209.727 119.802 210.966 117.176C212.205 114.551 211.771 111.03 209.482 109.224C208.355 108.342 206.801 107.824 206.234 106.501C205.842 105.598 206.024 104.562 205.821 103.603C205.247 100.978 202.146 99.9139 199.521 99.4029C197.708 99.0389 195.755 98.7029 194.061 99.4799C191.653 100.551 190.372 103.526 187.824 104.212C185.023 104.968 182.419 102.588 179.633 101.741C178.107 101.31 176.488 101.334 174.975 101.809C173.462 102.283 172.12 103.189 171.114 104.415C170.505 105.185 169.924 106.151 168.958 106.326C167.677 106.564 166.634 105.514 165.367 106.13C164.667 106.473 163.771 107.873 163.05 108.405C160.754 110.078 158.234 111.548 157.891 114.67Z" fill="white"/>
<path id="cloud-left" d="M66.993 209.04C66.8989 210.461 67.1393 211.883 67.6949 213.194C68.2505 214.504 69.1058 215.666 70.1921 216.586C72.3962 218.403 75.0623 219.572 77.8923 219.96C82.4918 220.718 87.2127 220.105 91.4657 218.196C92.8658 217.559 94.3778 216.761 95.8899 217.09C97.0169 217.335 97.9059 218.168 98.8369 218.847C104.066 222.67 111.185 222.096 117.639 221.508C121.511 221.158 125.431 220.857 129.099 219.575C132.767 218.294 136.225 215.893 137.877 212.379C139.529 208.865 138.955 204.168 135.896 201.767C134.391 200.577 132.319 199.884 131.556 198.127C131.031 196.923 131.283 195.53 131.003 194.249C130.24 190.749 126.103 189.349 122.603 188.649C120.181 188.166 117.569 187.753 115.308 188.761C112.088 190.161 110.408 194.165 106.971 195.061C103.219 196.069 99.761 192.884 96.0369 191.757C93.997 191.172 91.831 191.197 89.805 191.828C87.779 192.458 85.9815 193.667 84.6335 195.306C83.8215 196.342 83.0445 197.623 81.7494 197.861C80.0414 198.183 78.6483 196.776 76.9543 197.602C76.0233 198.05 74.8542 199.926 73.8672 200.633C70.8151 202.901 67.448 204.861 66.993 209.04Z" fill="white"/>
<g id="Man">
<path id="Vector" d="M322.27 54.5036L214.466 219.008L213.829 216.761L317.432 56.8697C317.432 56.8697 319.448 53.3206 322.27 54.5036Z" fill="#517136"/>
<path id="Vector_2" d="M190.442 199.345C190.442 199.345 183.042 194.879 174.775 197.903C166.508 200.927 156.148 208.032 156.148 208.032C156.148 208.032 156.575 208.41 156.148 215.767C155.721 223.125 143.512 247.919 150.603 254.016C157.695 260.114 169.392 260.891 169.392 260.891C169.392 260.891 199.01 211.826 190.442 199.345Z" fill="#517136"/>
<path id="Vector_3" d="M169.392 260.891C169.392 260.891 168.097 260.807 166.109 260.464C162.112 259.764 155.315 258.084 150.575 254.016C144.709 248.976 152.046 231.147 155 220.969C155.551 219.278 155.926 217.535 156.12 215.767C156.547 208.41 156.12 208.032 156.12 208.032C156.12 208.032 166.473 200.92 174.747 197.903C183.021 194.886 190.414 199.345 190.414 199.345C199.01 211.826 169.392 260.891 169.392 260.891Z" fill="url(#paint0_linear)"/>
<path id="Vector_4" d="M178.03 209.663C178.03 209.663 170.092 218.728 168.734 237.447C167.39 255.704 166.2 260.247 166.137 260.464C162.14 259.764 155.343 258.084 150.603 254.016C144.737 248.976 152.074 231.147 155.028 220.969C156.27 220.475 157.282 219.533 157.863 218.329C160.173 213.583 159.179 207.08 163.12 207.234C167.061 207.388 178.03 209.663 178.03 209.663Z" fill="url(#paint1_linear)"/>
<path id="Vector_5" d="M191.625 201.291C191.625 201.291 175.251 210.664 175.251 221.207C175.251 231.749 169.189 229.817 168.426 242.207C167.663 254.597 168.363 268.052 177.414 271.258C186.466 274.464 200.452 260.121 206.745 257.097C210.308 255.382 203.294 244.685 209.909 235.501C215.355 227.927 213.227 223.216 213.682 222.733C214.739 221.62 216.538 210.167 207.172 207.213C201.869 205.573 196.676 203.594 191.625 201.291V201.291Z" fill="#517136"/>
<path id="Vector_6" d="M191.625 201.291C189.865 202.339 188.168 203.489 186.543 204.735C181.74 208.396 175.251 214.535 175.251 221.199C175.251 231.735 169.189 229.81 168.426 242.2C167.663 254.59 168.363 268.045 177.414 271.251C186.466 274.457 200.452 260.114 206.745 257.09C210.308 255.375 203.294 244.678 209.909 235.494C215.355 227.92 213.227 223.209 213.682 222.726C214.739 221.613 216.538 210.16 207.172 207.206C201.869 205.568 196.676 203.592 191.625 201.291V201.291Z" fill="url(#paint2_linear)"/>
<path id="Vector_7" d="M213.682 213.058L220.557 225.407C220.809 225.859 221.165 226.244 221.596 226.531C222.027 226.818 222.52 226.999 223.034 227.058C223.549 227.116 224.07 227.052 224.554 226.87C225.039 226.687 225.473 226.392 225.821 226.009L233.57 217.461L241.438 228.312C241.438 228.312 230.756 241.073 223.854 241.78C216.951 242.487 209.909 235.48 209.909 235.48L213.682 213.058Z" fill="#517136"/>
<path id="Vector_8" d="M213.682 213.058L220.557 225.407C220.809 225.859 221.165 226.244 221.596 226.531C222.027 226.818 222.52 226.999 223.034 227.058C223.549 227.116 224.07 227.052 224.554 226.87C225.039 226.687 225.473 226.392 225.821 226.009L233.57 217.461L241.438 228.312C241.438 228.312 230.756 241.073 223.854 241.78C216.951 242.487 209.909 235.48 209.909 235.48L213.682 213.058Z" fill="url(#paint3_linear)"/>
<path id="Vector_9" d="M250.538 64.3039L191.226 203.846L192.57 205.029L252.351 65.2209C252.351 65.2209 254.683 62.9178 250.538 64.3039Z" fill="#517136"/>
<path id="Vector_10" d="M203.945 205.869L203.441 210.286C203.441 210.286 199.01 213.674 196.182 209.495C193.354 205.316 191.226 203.846 191.226 203.846L192.626 193.297L203.945 205.869Z" fill="url(#paint4_linear)"/>
<path id="Vector_11" d="M301.99 57.1847C301.99 57.1847 293.387 71.7521 263.356 63.1979C263.356 63.1979 259.772 72.1161 224.757 60.9158C224.757 60.9158 212.016 82.3994 182.377 75.6162C182.377 75.6162 170.148 95.2168 155.882 93.0047C155.882 93.0047 150.505 109.259 123.681 107.362L65.789 92.9837C65.3263 90.3781 65.2203 87.7217 65.4739 85.0875C66.083 77.8353 69.3381 67.125 82.0084 59.7048C82.0084 59.7048 83.1845 38.5711 111.906 36.8981C111.906 36.8981 118.473 16.5975 147.376 21.3016C147.376 21.3016 161.377 2.98209 188.832 9.47828C188.832 9.47828 221.033 -9.42228 242.67 6.16718C242.67 6.16718 266.793 -6.59419 289.103 5.69817C289.103 5.69817 330.243 34.049 334.191 45.3963C338.153 56.7577 315.85 57.7377 301.99 57.1847Z" fill="#517136"/>
<path id="Vector_12" d="M68.148 90.1977L170.092 231.896L173.095 231.448L72.6212 92.6477L68.148 90.1977Z" fill="#517136"/>
<path id="Vector_13" d="M135.385 103.106L177.512 227.255L180.312 225.491L138.675 103.106C138.675 103.106 136.827 100.894 135.385 103.106Z" fill="#517136"/>
<path id="Vector_14" d="M216.72 186.275C216.72 186.275 218.904 210.146 207.193 207.206C195.482 204.266 192.647 193.64 191.688 190.021C190.729 186.401 207.501 162.86 216.72 186.275Z" fill="url(#paint5_linear)"/>
<path id="Vector_15" d="M191.667 190.028C191.667 190.028 193.921 188.873 197.12 187.473C202.482 185.127 210.49 182.096 215.026 182.635C222.279 183.496 214.473 176.601 212.31 176.027C212.31 176.027 205.527 168.663 200.032 171.267C194.537 173.871 186.109 172.296 191.667 190.028Z" fill="#517136"/>
<path id="Vector_16" d="M191.667 190.028C191.667 190.028 193.921 188.873 197.12 187.473C202.482 185.127 210.49 182.096 215.026 182.635C222.279 183.496 214.473 176.601 212.31 176.027C212.31 176.027 205.527 168.663 200.032 171.267C194.537 173.871 186.109 172.296 191.667 190.028Z" fill="url(#paint6_linear)"/>
<path id="Vector_17" d="M197.456 195.628L197.12 187.473L194.908 188.467L197.456 195.628Z" fill="black"/>
<path id="Vector_18" d="M178.03 271.559C178.03 271.559 177.554 266.176 190.162 261.962C202.769 257.748 211.96 247.639 211.96 247.639C211.96 247.639 231.225 234.185 239.555 240.639C247.885 247.093 251.238 273.267 251.238 273.267C251.238 273.267 243.328 275.976 239.338 276.452C235.348 276.928 230.532 258.189 230.532 258.189L212.03 271.678C212.03 271.678 193.284 287.092 178.03 271.559Z" fill="#517136"/>
<path id="Vector_19" d="M178.03 271.559C178.03 271.559 177.554 266.176 190.162 261.962C202.769 257.748 211.96 247.639 211.96 247.639C211.96 247.639 231.225 234.185 239.555 240.639C247.885 247.093 251.238 273.267 251.238 273.267C251.238 273.267 243.328 275.976 239.338 276.452C235.348 276.928 230.532 258.189 230.532 258.189L212.03 271.678C212.03 271.678 193.284 287.092 178.03 271.559Z" fill="url(#paint7_linear)"/>
<path id="Vector_20" d="M176.07 274.506C177.253 276.4 178.906 277.954 180.87 279.016C182.833 280.079 185.039 280.614 187.271 280.568C193.48 280.491 202.797 277.012 207.571 276.13C212.597 275.213 212.471 284.257 213.633 290.026C214.109 292.427 219.233 294.17 221.6 293.603L230.294 290.187C230.294 290.187 228.6 257.629 221.705 255.053C214.809 252.476 189.546 260.513 189.546 260.513C189.546 260.513 169.581 263.908 176.07 274.506Z" fill="#517136"/>
<path id="Vector_21" d="M176.07 274.506C177.253 276.4 178.906 277.954 180.87 279.016C182.833 280.079 185.039 280.614 187.271 280.568C193.48 280.491 202.797 277.012 207.571 276.13C212.597 275.213 212.471 284.257 213.633 290.026C214.109 292.427 219.233 294.17 221.6 293.603L230.294 290.187C230.294 290.187 228.6 257.629 221.705 255.053C214.809 252.476 189.546 260.513 189.546 260.513C189.546 260.513 169.581 263.908 176.07 274.506Z" fill="url(#paint8_linear)"/>
<path id="Vector_22" d="M178.205 213.058C178.205 213.058 171.765 221.585 170.099 231.896C169.399 236.362 170.155 241.304 171.275 245.469C173.109 252.329 176.574 255.746 183.175 253.169C186.025 252.049 190.435 250.495 194.054 247.52L187.873 233.898L183.175 237.006C183.175 237.006 187.691 224.077 185.597 217.111C183.504 210.146 178.205 213.058 178.205 213.058Z" fill="#517136"/>
<path id="Vector_23" d="M178.205 213.058C178.205 213.058 171.765 221.585 170.099 231.896C169.399 236.362 170.155 241.304 171.275 245.469C173.109 252.329 176.574 255.746 183.175 253.169C186.025 252.049 190.435 250.495 194.054 247.52L187.873 233.898L183.175 237.006C183.175 237.006 187.691 224.077 185.597 217.111C183.504 210.146 178.205 213.058 178.205 213.058Z" fill="url(#paint9_linear)"/>
<path id="Vector_24" d="M188.594 235.438C189.804 234.432 190.858 233.253 191.723 231.938C193.123 229.747 194.915 225.862 197.75 227.276C199.478 228.138 200.796 229.647 201.418 231.476C201.99 232.783 202.442 234.14 202.769 235.529C202.769 238.329 200.193 241.017 197.918 241.514L197.631 241.577L192.57 244.237L188.594 235.438Z" fill="url(#paint10_linear)"/>
<path id="Vector_25" d="M234.291 218.469C234.291 218.469 237.406 214.577 237.959 213.058C238.512 211.539 239.408 208.942 241.459 208.858C243.51 208.774 245.729 210.601 246.8 213.058C248.9 217.909 246.884 221.788 244.91 222.733C242.936 223.678 239.87 226.933 239.87 226.933L234.291 218.469Z" fill="url(#paint11_linear)"/>
<path id="Vector_26" d="M218.974 291.146L221.376 299.196C221.376 299.196 228.376 299.021 230.084 297.32L229.307 289.284L218.974 291.146Z" fill="url(#paint12_linear)"/>
<path id="Vector_27" d="M219.933 299.609C219.87 299.395 219.858 299.169 219.899 298.95C219.94 298.731 220.033 298.525 220.17 298.349C220.307 298.173 220.484 298.032 220.687 297.938C220.889 297.844 221.111 297.8 221.334 297.81C221.822 297.791 222.311 297.847 222.783 297.978C223.966 298.363 228.747 297.586 230.021 296.291C231.295 294.996 241.151 298.076 241.151 298.076C242.018 298.674 242.637 299.567 242.894 300.589C243.426 302.416 223.588 307.911 220.676 305.314L219.933 299.609Z" fill="#517136"/>
<path id="Vector_28" d="M239.331 274.45L242.649 282.15C242.649 282.15 249.579 281.156 251.049 279.273L249.341 271.377L239.331 274.45Z" fill="url(#paint13_linear)"/>
<path id="Vector_29" d="M241.263 282.724C241.175 282.522 241.136 282.301 241.149 282.081C241.162 281.86 241.228 281.646 241.34 281.455C241.451 281.265 241.607 281.103 241.793 280.985C241.979 280.866 242.191 280.793 242.411 280.771C242.894 280.698 243.385 280.698 243.867 280.771C245.092 281.016 249.747 279.693 250.867 278.251C251.987 276.809 262.131 278.727 262.131 278.727C263.079 279.214 263.815 280.034 264.196 281.03C264.938 282.787 245.883 290.565 242.684 288.317L241.263 282.724Z" fill="#517136"/>
<path id="Vector_30" d="M241.263 282.724C241.175 282.522 241.136 282.301 241.149 282.081C241.162 281.86 241.228 281.646 241.34 281.455C241.451 281.265 241.607 281.103 241.793 280.985C241.979 280.866 242.191 280.793 242.411 280.771C242.894 280.698 243.385 280.698 243.867 280.771C245.092 281.016 249.747 279.693 250.867 278.251C251.987 276.809 262.131 278.727 262.131 278.727C263.079 279.214 263.815 280.034 264.196 281.03C264.938 282.787 245.883 290.565 242.684 288.317L241.263 282.724Z" fill="url(#paint14_linear)"/>
<path id="Vector_31" d="M219.933 299.609C219.87 299.395 219.858 299.169 219.899 298.95C219.94 298.731 220.033 298.525 220.17 298.349C220.307 298.173 220.484 298.032 220.687 297.938C220.889 297.844 221.111 297.8 221.334 297.81C221.822 297.791 222.311 297.847 222.783 297.978C223.966 298.363 228.747 297.586 230.021 296.291C231.295 294.996 241.151 298.076 241.151 298.076C242.018 298.674 242.637 299.567 242.894 300.589C243.426 302.416 223.588 307.911 220.676 305.314L219.933 299.609Z" fill="url(#paint15_linear)"/>
<path id="Vector_32" d="M242.411 280.771C242.894 280.698 243.385 280.698 243.867 280.771C245.092 281.016 249.747 279.693 250.867 278.251" fill="url(#paint16_linear)"/>
<path id="Vector_33" d="M218.05 145.443L130.401 176.209L164.905 180.171L258.435 148.46L218.05 145.443ZM164.219 178.148L136.785 175.187L217.287 147.284L253.506 149.174L164.219 178.148Z" fill="#517136"/>
<path id="Vector_34" d="M164.212 178.148L194.362 228.06L195.678 226.947L166.564 178.148H164.212Z" fill="#517136"/>
<path id="Vector_35" d="M255.558 149.44L238.925 210.342L241.69 208.865L258.435 148.46L255.558 149.44Z" fill="#517136"/>
<path id="Vector_36" d="M322.27 54.5036L214.466 219.008L213.829 216.761L317.432 56.8697C317.432 56.8697 319.448 53.3206 322.27 54.5036Z" fill="url(#paint17_linear)"/>
<path id="Vector_37" d="M250.538 64.3039L191.226 203.846L192.57 205.029L252.351 65.2209C252.351 65.2209 254.683 62.9178 250.538 64.3039Z" fill="url(#paint18_linear)"/>
<path id="Vector_38" d="M68.148 90.1977L170.092 231.896L173.095 231.448L72.6212 92.6477L68.148 90.1977Z" fill="url(#paint19_linear)"/>
<path id="Vector_39" d="M135.385 103.106L177.512 227.255L180.312 225.491L138.675 103.106C138.675 103.106 136.827 100.894 135.385 103.106Z" fill="url(#paint20_linear)"/>
<path id="Vector_40" d="M218.05 145.443L130.401 176.209L164.905 180.171L258.435 148.46L218.05 145.443ZM164.219 178.148L136.785 175.187L217.287 147.284L253.506 149.174L164.219 178.148Z" fill="url(#paint21_linear)"/>
<path id="Vector_41" d="M255.558 149.44L238.925 210.342L241.69 208.865L258.435 148.46L255.558 149.44Z" fill="url(#paint22_linear)"/>
<path id="Vector_42" d="M242.432 224.483C242.432 224.483 242.292 233.541 248.907 240.114C255.523 246.687 259.205 247.058 259.205 247.058L262.775 245.063C262.775 245.063 257.238 246.176 250.538 239.057C243.839 231.938 244.889 222.733 244.889 222.733L242.432 224.483Z" fill="#517136"/>
<path id="Vector_43" d="M199.773 240.646C199.773 240.646 206.514 260.534 199.388 268.647L202.769 268.045C202.769 268.045 205.373 262.956 204.603 254.653C204.093 249.483 202.899 244.404 201.054 239.547L199.773 240.646Z" fill="#517136"/>
<path id="Vector_44" d="M301.99 57.1847C301.99 57.1847 293.387 71.7521 263.356 63.1979C263.356 63.1979 259.772 72.1161 224.757 60.9158C224.757 60.9158 212.016 82.3994 182.377 75.6162C182.377 75.6162 170.148 95.2168 155.882 93.0047C155.882 93.0047 150.505 109.259 123.681 107.362L65.789 92.9837C65.3263 90.3781 65.2203 87.7217 65.4739 85.0875C79.2994 90.1627 117.639 103.288 130.058 97.5129C130.058 97.5129 133.047 79.6273 149.868 76.7573C149.868 76.7573 162.994 61.6928 174.733 64.3039C174.733 64.3039 200.529 43.3943 217.889 49.0714C217.889 49.0714 238.652 41.7422 248.655 45.5223C258.659 49.3024 260.311 51.4865 260.311 51.4865C260.311 51.4865 281.346 38.8861 292.694 44.2133L300.492 47.8814C300.492 47.8814 314.093 34.427 323.187 38.1931C331.993 41.8472 334.072 45.1933 334.191 45.3963C338.153 56.7577 315.85 57.7377 301.99 57.1847Z" fill="#517136"/>
<path id="Vector_45" d="M301.99 57.1847C301.99 57.1847 293.387 71.7521 263.356 63.1979C263.356 63.1979 259.772 72.1161 224.757 60.9158C224.757 60.9158 212.016 82.3994 182.377 75.6162C182.377 75.6162 170.148 95.2168 155.882 93.0047C155.882 93.0047 150.505 109.259 123.681 107.362L65.789 92.9837C65.3263 90.3781 65.2203 87.7217 65.4739 85.0875C79.2994 90.1627 117.639 103.288 130.058 97.5129C130.058 97.5129 133.047 79.6273 149.868 76.7573C149.868 76.7573 162.994 61.6928 174.733 64.3039C174.733 64.3039 200.529 43.3943 217.889 49.0714C217.889 49.0714 238.652 41.7422 248.655 45.5223C258.659 49.3024 260.311 51.4865 260.311 51.4865C260.311 51.4865 281.346 38.8861 292.694 44.2133L300.492 47.8814C300.492 47.8814 314.093 34.427 323.187 38.1931C331.993 41.8472 334.072 45.1933 334.191 45.3963C338.153 56.7577 315.85 57.7377 301.99 57.1847Z" fill="url(#paint23_linear)"/>
<path id="Vector_46" d="M190.442 189.167H198.401L198.996 194.046H191.31L190.442 189.167Z" fill="#517136"/>
<path id="Vector_47" d="M190.442 189.167H198.401L198.996 194.046H191.31L190.442 189.167Z" fill="url(#paint24_linear)"/>
<path id="Vector_48" d="M203.77 185.855C203.77 185.855 198.086 186.598 198.401 189.167C198.716 191.736 198.24 197.651 201.866 196.72C205.492 195.789 208.677 190.49 212.31 192.31C215.943 194.13 215.733 196.846 217.154 194.704C218.575 192.562 218.554 186.093 216.881 185.54C215.208 184.987 203.77 185.855 203.77 185.855Z" fill="#517136"/>
<path id="Vector_49" d="M203.77 185.855C203.77 185.855 198.086 186.598 198.401 189.167C198.716 191.736 198.24 197.651 201.866 196.72C205.492 195.789 208.677 190.49 212.31 192.31C215.943 194.13 215.733 196.846 217.154 194.704C218.575 192.562 218.554 186.093 216.881 185.54C215.208 184.987 203.77 185.855 203.77 185.855Z" fill="url(#paint25_linear)"/>
<path id="Vector_50" d="M204.785 186.275C203.904 186.264 203.039 186.507 202.293 186.976C201.397 187.718 201.544 193.745 202.461 194.676C203.378 195.607 208.208 191.967 209.902 191.575C210.843 191.301 211.836 191.258 212.796 191.451C213.756 191.643 214.656 192.065 215.418 192.681C217.154 194.179 217.847 192.282 217.847 192.282C217.847 192.282 218.743 186.723 217.301 185.799C215.859 184.875 204.785 186.275 204.785 186.275Z" fill="#517136"/>
<path id="Vector_51" d="M204.785 186.275C203.904 186.264 203.039 186.507 202.293 186.976C201.397 187.718 201.544 193.745 202.461 194.676C203.378 195.607 208.208 191.967 209.902 191.575C210.843 191.301 211.836 191.258 212.796 191.451C213.756 191.643 214.656 192.065 215.418 192.681C217.154 194.179 217.847 192.282 217.847 192.282C217.847 192.282 218.743 186.723 217.301 185.799C215.859 184.875 204.785 186.275 204.785 186.275Z" fill="url(#paint26_linear)"/>
<path id="Vector_52" d="M191.625 201.291C191.625 201.291 196.462 205.652 197.743 207.885C199.024 210.118 200.977 211.168 201.691 210.685C202.386 210.135 203.026 209.518 203.602 208.844L204.253 210.65C204.253 210.65 202.734 213.807 199.948 213.03C197.162 212.253 189.861 203.328 189.861 203.328L191.625 201.291Z" fill="#517136"/>
<path id="Vector_53" d="M191.625 201.291C191.625 201.291 196.462 205.652 197.743 207.885C199.024 210.118 200.977 211.168 201.691 210.685C202.386 210.135 203.026 209.518 203.602 208.844L204.253 210.65C204.253 210.65 202.734 213.807 199.948 213.03C197.162 212.253 189.861 203.328 189.861 203.328L191.625 201.291Z" fill="url(#paint27_linear)"/>
<path id="Vector_54" d="M87.7976 60.2018L148.895 74.7832C148.895 74.7832 160.656 64.7099 163.218 63.8699C165.78 63.0299 95.1898 48.2384 95.1898 48.2384C95.1898 48.2384 83.7235 50.0795 87.7976 60.2018Z" fill="url(#paint28_linear)"/>
<path id="Vector_55" d="M114.335 36.2121L177.407 58.4867C177.407 58.4867 196.308 48.0914 198.891 47.2864C201.474 46.4814 127.643 24.5007 127.643 24.5007C127.643 24.5007 117.002 25.5717 114.335 36.2121Z" fill="url(#paint29_linear)"/>
<path id="Vector_56" d="M151.191 20.8396L218.001 46.4604C218.001 46.4604 230.42 41.4832 235.74 42.1132C238.421 42.4282 169.784 11.2003 169.784 11.2003C169.784 11.2003 156.652 11.9703 151.191 20.8396Z" fill="url(#paint30_linear)"/>
<path id="Vector_57" d="M193.277 9.60428L260.395 48.2384C260.395 48.2384 269.656 39.5162 289.369 41.4832C292.05 41.7562 213.948 1.74304 213.948 1.74304C213.948 1.74304 198.73 0.735014 193.277 9.60428Z" fill="url(#paint31_linear)"/>
<path id="Vector_58" d="M248.683 9.10027L300.52 47.8814C300.52 47.8814 302.557 34.245 322.27 36.2121C324.951 36.4851 269.348 1.26004 269.348 1.26004C269.348 1.26004 254.136 0.252009 248.683 9.10027Z" fill="url(#paint32_linear)"/>
</g>
</g>
<defs>
<linearGradient id="paint0_linear" x1="148.391" y1="228.872" x2="191.996" y2="228.872" gradientUnits="userSpaceOnUse">
<stop stop-opacity="0"/>
<stop offset="0.91" stop-opacity="0.8"/>
<stop offset="1"/>
</linearGradient>
<linearGradient id="paint1_linear" x1="3734.49" y1="17990" x2="4989.33" y2="17990" gradientUnits="userSpaceOnUse">
<stop stop-opacity="0"/>
<stop offset="0.91" stop-opacity="0.8"/>
<stop offset="1"/>
</linearGradient>
<linearGradient id="paint2_linear" x1="9630.95" y1="24206.8" x2="8073.09" y2="24103.1" gradientUnits="userSpaceOnUse">
<stop stop-opacity="0"/>
<stop offset="0.91" stop-opacity="0.8"/>
<stop offset="1"/>
</linearGradient>
<linearGradient id="paint3_linear" x1="7751.94" y1="9378.95" x2="5647.98" y2="10227.5" gradientUnits="userSpaceOnUse">
<stop stop-opacity="0"/>
<stop offset="0.91" stop-opacity="0.8"/>
<stop offset="1"/>
</linearGradient>
<linearGradient id="paint4_linear" x1="204.477" y1="198.736" x2="191.996" y2="204.784" gradientUnits="userSpaceOnUse">
<stop stop-color="#ECC4D7"/>
<stop offset="0.42" stop-color="#EFD4D1"/>
<stop offset="1" stop-color="#F2EAC9"/>
</linearGradient>
<linearGradient id="paint5_linear" x1="5186.33" y1="8422.13" x2="5459.85" y2="8976.56" gradientUnits="userSpaceOnUse">
<stop stop-color="#ECC4D7"/>
<stop offset="0.42" stop-color="#EFD4D1"/>
<stop offset="1" stop-color="#F2EAC9"/>
</linearGradient>
<linearGradient id="paint6_linear" x1="6045.42" y1="5009.1" x2="5525.73" y2="5587.5" gradientUnits="userSpaceOnUse">
<stop stop-opacity="0"/>
<stop offset="0.91" stop-opacity="0.8"/>
<stop offset="1"/>
</linearGradient>
<linearGradient id="paint7_linear" x1="18056.8" y1="14042.2" x2="17563.2" y2="15307.3" gradientUnits="userSpaceOnUse">
<stop stop-opacity="0"/>
<stop offset="0.91" stop-opacity="0.8"/>
<stop offset="1"/>
</linearGradient>
<linearGradient id="paint8_linear" x1="12235.6" y1="14738.5" x2="11069.6" y2="17321" gradientUnits="userSpaceOnUse">
<stop stop-opacity="0"/>
<stop offset="0.91" stop-opacity="0.8"/>
<stop offset="1"/>
</linearGradient>
<linearGradient id="paint9_linear" x1="4459.07" y1="14148.5" x2="3594.7" y2="14056.5" gradientUnits="userSpaceOnUse">
<stop stop-opacity="0"/>
<stop offset="0.91" stop-opacity="0.8"/>
<stop offset="1"/>
</linearGradient>
<linearGradient id="paint10_linear" x1="2717.91" y1="6036.75" x2="3004.97" y2="6036.75" gradientUnits="userSpaceOnUse">
<stop stop-color="#ECC4D7"/>
<stop offset="0.42" stop-color="#EFD4D1"/>
<stop offset="1" stop-color="#F2EAC9"/>
</linearGradient>
<linearGradient id="paint11_linear" x1="3500.09" y1="5836.14" x2="3756.44" y2="5836.14" gradientUnits="userSpaceOnUse">
<stop stop-color="#ECC4D7"/>
<stop offset="0.42" stop-color="#EFD4D1"/>
<stop offset="1" stop-color="#F2EAC9"/>
</linearGradient>
<linearGradient id="paint12_linear" x1="2683.36" y1="4455.72" x2="2859.66" y2="4455.72" gradientUnits="userSpaceOnUse">
<stop stop-color="#ECC4D7"/>
<stop offset="0.42" stop-color="#EFD4D1"/>
<stop offset="1" stop-color="#F2EAC9"/>
</linearGradient>
<linearGradient id="paint13_linear" x1="3179.58" y1="4530.93" x2="3376.33" y2="4530.93" gradientUnits="userSpaceOnUse">
<stop stop-color="#ECC4D7"/>
<stop offset="0.42" stop-color="#EFD4D1"/>
<stop offset="1" stop-color="#F2EAC9"/>
</linearGradient>
<linearGradient id="paint14_linear" x1="6451.94" y1="4673.91" x2="6470.54" y2="4829.71" gradientUnits="userSpaceOnUse">
<stop stop-opacity="0"/>
<stop offset="0.91" stop-opacity="0.8"/>
<stop offset="1"/>
</linearGradient>
<linearGradient id="paint15_linear" x1="5732.7" y1="4562.89" x2="5736.38" y2="4688.98" gradientUnits="userSpaceOnUse">
<stop stop-opacity="0"/>
<stop offset="0.91" stop-opacity="0.8"/>
<stop offset="1"/>
</linearGradient>
<linearGradient id="paint16_linear" x1="2401.38" y1="1296.3" x2="2503.45" y2="1296.3" gradientUnits="userSpaceOnUse">
<stop stop-opacity="0"/>
<stop offset="0.91" stop-opacity="0.8"/>
<stop offset="1"/>
</linearGradient>
<linearGradient id="paint17_linear" x1="30899.2" y1="46369.4" x2="38963.2" y2="-5247.51" gradientUnits="userSpaceOnUse">
<stop stop-opacity="0"/>
<stop offset="0.91" stop-opacity="0.8"/>
<stop offset="1"/>
</linearGradient>
<linearGradient id="paint18_linear" x1="13645.5" y1="38804.9" x2="23738.1" y2="-4132.53" gradientUnits="userSpaceOnUse">
<stop stop-opacity="0"/>
<stop offset="0.91" stop-opacity="0.8"/>
<stop offset="1"/>
</linearGradient>
<linearGradient id="paint19_linear" x1="8022.09" y1="36943.1" x2="14217.2" y2="-7676.02" gradientUnits="userSpaceOnUse">
<stop stop-opacity="0"/>
<stop offset="0.91" stop-opacity="0.8"/>
<stop offset="1"/>
</linearGradient>
<linearGradient id="paint20_linear" x1="6037.04" y1="33329.6" x2="16667.9" y2="-3787.68" gradientUnits="userSpaceOnUse">
<stop stop-opacity="0"/>
<stop offset="0.91" stop-opacity="0.8"/>
<stop offset="1"/>
</linearGradient>
<linearGradient id="paint21_linear" x1="23528.6" y1="9550.83" x2="23839.2" y2="-1586.76" gradientUnits="userSpaceOnUse">
<stop stop-opacity="0"/>
<stop offset="0.91" stop-opacity="0.8"/>
<stop offset="1"/>
</linearGradient>
<linearGradient id="paint22_linear" x1="5301.85" y1="17411.6" x2="11157.2" y2="-539.988" gradientUnits="userSpaceOnUse">
<stop stop-opacity="0"/>
<stop offset="0.91" stop-opacity="0.8"/>
<stop offset="1"/>
</linearGradient>
<linearGradient id="paint23_linear" x1="58121.7" y1="57.1248" x2="56389.5" y2="30672.1" gradientUnits="userSpaceOnUse">
<stop stop-opacity="0"/>
<stop offset="0.91" stop-opacity="0.8"/>
<stop offset="1"/>
</linearGradient>
<linearGradient id="paint24_linear" x1="1773.49" y1="1524.54" x2="1850.75" y2="1512.01" gradientUnits="userSpaceOnUse">
<stop stop-opacity="0"/>
<stop offset="0.91" stop-opacity="0.8"/>
<stop offset="1"/>
</linearGradient>
<linearGradient id="paint25_linear" x1="4268.14" y1="3266.81" x2="4308.38" y2="3494.83" gradientUnits="userSpaceOnUse">
<stop stop-opacity="0"/>
<stop offset="0.91" stop-opacity="0.8"/>
<stop offset="1"/>
</linearGradient>
<linearGradient id="paint26_linear" x1="3612.19" y1="2565" x2="3621.2" y2="2764.49" gradientUnits="userSpaceOnUse">
<stop stop-opacity="0"/>
<stop offset="0.91" stop-opacity="0.8"/>
<stop offset="1"/>
</linearGradient>
<linearGradient id="paint27_linear" x1="2783.95" y1="3713.04" x2="3079.86" y2="3713.04" gradientUnits="userSpaceOnUse">
<stop stop-opacity="0"/>
<stop offset="0.91" stop-opacity="0.8"/>
<stop offset="1"/>
</linearGradient>
<linearGradient id="paint28_linear" x1="6888.65" y1="1881.16" x2="6687.44" y2="8992.51" gradientUnits="userSpaceOnUse">
<stop stop-opacity="0"/>
<stop offset="0.91" stop-opacity="0.8"/>
<stop offset="1"/>
</linearGradient>
<linearGradient id="paint29_linear" x1="11529" y1="1175.61" x2="11127.1" y2="13469.9" gradientUnits="userSpaceOnUse">
<stop stop-opacity="0"/>
<stop offset="0.91" stop-opacity="0.8"/>
<stop offset="1"/>
</linearGradient>
<linearGradient id="paint30_linear" x1="16058.2" y1="508.367" x2="15605.5" y2="13852.8" gradientUnits="userSpaceOnUse">
<stop stop-opacity="0"/>
<stop offset="0.91" stop-opacity="0.8"/>
<stop offset="1"/>
</linearGradient>
<linearGradient id="paint31_linear" x1="24819.7" y1="1502.76" x2="23231.9" y2="7535.75" gradientUnits="userSpaceOnUse">
<stop stop-opacity="0"/>
<stop offset="0.91" stop-opacity="0.8"/>
<stop offset="1"/>
</linearGradient>
<linearGradient id="paint32_linear" x1="23841.8" y1="1039.32" x2="21616.1" y2="11751.9" gradientUnits="userSpaceOnUse">
<stop stop-opacity="0"/>
<stop offset="0.91" stop-opacity="0.8"/>
<stop offset="1"/>
</linearGradient>
</defs>
</svg>
